{
 "cells": [
  {
   "cell_type": "markdown",
   "id": "6ca59111-053a-40df-87e3-69aecd897008",
   "metadata": {},
   "source": [
    "## This notebook does finite difference approaches for a few simple differential equations. "
   ]
  },
  {
   "cell_type": "code",
   "execution_count": 1,
   "id": "b3db0c34-8e4a-41c8-b3e5-767582622906",
   "metadata": {},
   "outputs": [],
   "source": [
    "import numpy as np\n",
    "import matplotlib\n",
    "import matplotlib.pyplot as plt\n",
    "from animate import *\n",
    "plt.style.use('dynamics_site')"
   ]
  },
  {
   "cell_type": "markdown",
   "id": "3d39fd5a-9ed9-433c-95c0-2bff65de25cc",
   "metadata": {},
   "source": [
    "# 1st order equation  $f'(x) = f(x)$"
   ]
  },
  {
   "cell_type": "code",
   "execution_count": 2,
   "id": "7bbd6ec9-0a83-4e5d-90d6-8ac718c1f866",
   "metadata": {},
   "outputs": [],
   "source": [
    "#define findiff approx:\n",
    "def getsol(tmax,f0,dt):\n",
    "    y=[f0]\n",
    "    x=[0]\n",
    "    time=0\n",
    "    while time < tmax:\n",
    "        f_next = (1+dt)*f0\n",
    "        y.append(f0)\n",
    "        x.append(time)\n",
    "        f0 = f_next\n",
    "        time= time+dt\n",
    "    return x, y\n",
    "\n",
    "\n",
    "def generator(dt):\n",
    "    plt.switch_backend('agg')\n",
    "    # Set up data\n",
    "    x = np.linspace(0, 2, 100)\n",
    "    y = np.e**x\n",
    "    newx,newy = getsol(2,1,dt)\n",
    "    fig,ax = plt.subplots(figsize=(7,7))\n",
    "    plt.plot(x,y,c='k',label='$e^{t}$',zorder=0)\n",
    "    plt.scatter(newx,newy,c='r',label='Numerical f(t)',zorder=1)\n",
    "    plt.ylabel(\"f(t)\")\n",
    "    plt.xlabel('t')\n",
    "    plt.title('$\\Delta t =$'+str(np.round(dt,3)))\n",
    "    plt.legend(loc='upper left')\n",
    "    return fig"
   ]
  },
  {
   "cell_type": "code",
   "execution_count": 3,
   "id": "fd6ae07c-dce4-4cfc-b36a-b1f3694175a3",
   "metadata": {},
   "outputs": [],
   "source": [
    "fig = generator(0.1)"
   ]
  },
  {
   "cell_type": "code",
   "execution_count": 4,
   "id": "ad05fc85-9c98-47b5-aff7-a782f2e10a22",
   "metadata": {},
   "outputs": [
    {
     "name": "stdout",
     "output_type": "stream",
     "text": [
      "saving figures\n"
     ]
    },
    {
     "name": "stderr",
     "output_type": "stream",
     "text": [
      "100%|█████████████████████████████████████████| 150/150 [00:25<00:00,  5.97it/s]\n",
      "ffmpeg version 4.4.2-0ubuntu0.22.04.1 Copyright (c) 2000-2021 the FFmpeg developers\n",
      "  built with gcc 11 (Ubuntu 11.2.0-19ubuntu1)\n",
      "  configuration: --prefix=/usr --extra-version=0ubuntu0.22.04.1 --toolchain=hardened --libdir=/usr/lib/x86_64-linux-gnu --incdir=/usr/include/x86_64-linux-gnu --arch=amd64 --enable-gpl --disable-stripping --enable-gnutls --enable-ladspa --enable-libaom --enable-libass --enable-libbluray --enable-libbs2b --enable-libcaca --enable-libcdio --enable-libcodec2 --enable-libdav1d --enable-libflite --enable-libfontconfig --enable-libfreetype --enable-libfribidi --enable-libgme --enable-libgsm --enable-libjack --enable-libmp3lame --enable-libmysofa --enable-libopenjpeg --enable-libopenmpt --enable-libopus --enable-libpulse --enable-librabbitmq --enable-librubberband --enable-libshine --enable-libsnappy --enable-libsoxr --enable-libspeex --enable-libsrt --enable-libssh --enable-libtheora --enable-libtwolame --enable-libvidstab --enable-libvorbis --enable-libvpx --enable-libwebp --enable-libx265 --enable-libxml2 --enable-libxvid --enable-libzimg --enable-libzmq --enable-libzvbi --enable-lv2 --enable-omx --enable-openal --enable-opencl --enable-opengl --enable-sdl2 --enable-pocketsphinx --enable-librsvg --enable-libmfx --enable-libdc1394 --enable-libdrm --enable-libiec61883 --enable-chromaprint --enable-frei0r --enable-libx264 --enable-shared\n",
      "  libavutil      56. 70.100 / 56. 70.100\n",
      "  libavcodec     58.134.100 / 58.134.100\n",
      "  libavformat    58. 76.100 / 58. 76.100\n",
      "  libavdevice    58. 13.100 / 58. 13.100\n",
      "  libavfilter     7.110.100 /  7.110.100\n",
      "  libswscale      5.  9.100 /  5.  9.100\n",
      "  libswresample   3.  9.100 /  3.  9.100\n",
      "  libpostproc    55.  9.100 / 55.  9.100\n",
      "Input #0, image2, from '%d.png':\n",
      "  Duration: 00:00:06.00, start: 0.000000, bitrate: N/A\n",
      "  Stream #0:0: Video: png, rgba(pc), 1775x1928 [SAR 11811:11811 DAR 1775:1928], 25 fps, 25 tbr, 25 tbn, 25 tbc\n",
      "Stream mapping:\n",
      "  Stream #0:0 -> #0:0 (png (native) -> png (native))\n",
      "Press [q] to stop, [?] for help\n"
     ]
    },
    {
     "name": "stdout",
     "output_type": "stream",
     "text": [
      "Framerate is None fps\n",
      "Total Runtime is None s\n"
     ]
    },
    {
     "name": "stderr",
     "output_type": "stream",
     "text": [
      "[Parsed_palettegen_0 @ 0x55a0a6d972c0] 255(+1) colors generated out of 2160 colors; ratio=0.118056\n",
      "[Parsed_palettegen_0 @ 0x55a0a6d972c0] Dupped color: FFCA0000\n",
      "[Parsed_palettegen_0 @ 0x55a0a6d972c0] Dupped color: FFFA0000\n",
      "[Parsed_palettegen_0 @ 0x55a0a6d972c0] Dupped color: FFFD0000\n",
      "Output #0, image2, to '../temp_palette_example_1.png':\n",
      "  Metadata:\n",
      "    encoder         : Lavf58.76.100\n",
      "  Stream #0:0: Video: png, rgba(pc, gbr/unknown/unknown, progressive), 16x16 [SAR 1:1 DAR 1:1], q=2-31, 200 kb/s, 25 fps, 25 tbn\n",
      "    Metadata:\n",
      "      encoder         : Lavc58.134.100 png\n",
      "frame=    1 fps=0.7 q=-0.0 Lsize=N/A time=00:00:00.04 bitrate=N/A speed=0.0299x    \n",
      "video:1kB audio:0kB subtitle:0kB other streams:0kB global headers:0kB muxing overhead: unknown\n",
      "ffmpeg version 4.4.2-0ubuntu0.22.04.1 Copyright (c) 2000-2021 the FFmpeg developers\n",
      "  built with gcc 11 (Ubuntu 11.2.0-19ubuntu1)\n",
      "  configuration: --prefix=/usr --extra-version=0ubuntu0.22.04.1 --toolchain=hardened --libdir=/usr/lib/x86_64-linux-gnu --incdir=/usr/include/x86_64-linux-gnu --arch=amd64 --enable-gpl --disable-stripping --enable-gnutls --enable-ladspa --enable-libaom --enable-libass --enable-libbluray --enable-libbs2b --enable-libcaca --enable-libcdio --enable-libcodec2 --enable-libdav1d --enable-libflite --enable-libfontconfig --enable-libfreetype --enable-libfribidi --enable-libgme --enable-libgsm --enable-libjack --enable-libmp3lame --enable-libmysofa --enable-libopenjpeg --enable-libopenmpt --enable-libopus --enable-libpulse --enable-librabbitmq --enable-librubberband --enable-libshine --enable-libsnappy --enable-libsoxr --enable-libspeex --enable-libsrt --enable-libssh --enable-libtheora --enable-libtwolame --enable-libvidstab --enable-libvorbis --enable-libvpx --enable-libwebp --enable-libx265 --enable-libxml2 --enable-libxvid --enable-libzimg --enable-libzmq --enable-libzvbi --enable-lv2 --enable-omx --enable-openal --enable-opencl --enable-opengl --enable-sdl2 --enable-pocketsphinx --enable-librsvg --enable-libmfx --enable-libdc1394 --enable-libdrm --enable-libiec61883 --enable-chromaprint --enable-frei0r --enable-libx264 --enable-shared\n",
      "  libavutil      56. 70.100 / 56. 70.100\n",
      "  libavcodec     58.134.100 / 58.134.100\n",
      "  libavformat    58. 76.100 / 58. 76.100\n",
      "  libavdevice    58. 13.100 / 58. 13.100\n",
      "  libavfilter     7.110.100 /  7.110.100\n",
      "  libswscale      5.  9.100 /  5.  9.100\n",
      "  libswresample   3.  9.100 /  3.  9.100\n",
      "  libpostproc    55.  9.100 / 55.  9.100\n",
      "Input #0, image2, from '%d.png':\n",
      "  Duration: 00:00:06.00, start: 0.000000, bitrate: N/A\n",
      "  Stream #0:0: Video: png, rgba(pc), 1775x1928 [SAR 11811:11811 DAR 1775:1928], 25 fps, 25 tbr, 25 tbn, 25 tbc\n",
      "Input #1, png_pipe, from '../temp_palette_example_1.png':\n",
      "  Duration: N/A, bitrate: N/A\n",
      "  Stream #1:0: Video: png, rgba(pc), 16x16 [SAR 1:1 DAR 1:1], 25 fps, 25 tbr, 25 tbn, 25 tbc\n",
      "Stream mapping:\n",
      "  Stream #0:0 (png) -> paletteuse:default\n",
      "  Stream #1:0 (png) -> paletteuse:palette\n",
      "  paletteuse -> Stream #0:0 (gif)\n",
      "Press [q] to stop, [?] for help\n",
      "[image2 @ 0x5638fb360840] Thread message queue blocking; consider raising the thread_queue_size option (current value: 8)\n",
      "Output #0, gif, to '../example_1.gif':\n",
      "  Metadata:\n",
      "    encoder         : Lavf58.76.100\n",
      "  Stream #0:0: Video: gif, pal8(pc, gbr/unknown/unknown, progressive), 1775x1928 [SAR 1:1 DAR 1775:1928], q=2-31, 200 kb/s, 25 fps, 100 tbn (default)\n",
      "    Metadata:\n",
      "      encoder         : Lavc58.134.100 gif\n",
      "frame=  150 fps= 16 q=-0.0 Lsize=    1487kB time=00:00:05.97 bitrate=2040.3kbits/s speed=0.64x    \n",
      "video:1487kB audio:0kB subtitle:0kB other streams:0kB global headers:0kB muxing overhead: 0.001314%\n"
     ]
    }
   ],
   "source": [
    "parameter_grid = np.linspace(0.25,0.001,150)\n",
    "savefigures(generator,parameter_grid,outdir='./example_1/')\n",
    "render('./example_1/','example_1','gif',cleanup_type='rm')"
   ]
  },
  {
   "cell_type": "markdown",
   "id": "e3fb91da-7bc3-4526-b4f7-a350e941cae3",
   "metadata": {},
   "source": [
    "# Coupled 1st order equation  $f'(x) = -f(x)+g(x)$, $g'(x) = -g(x)+f(x)$"
   ]
  },
  {
   "cell_type": "code",
   "execution_count": 5,
   "id": "7a0dad02-bcd8-4ec7-a3d9-e777facc7bbb",
   "metadata": {},
   "outputs": [],
   "source": [
    "#define findiff approx:\n",
    "def getsol(tmax,f0,g0,dt):\n",
    "    f=[f0]\n",
    "    g=[g0]\n",
    "    x=[0]\n",
    "    time=0\n",
    "    while time < tmax:\n",
    "        f_next = f0 - dt*f0 + dt*g0\n",
    "        g_next = g0 + dt*f0 - dt*g0\n",
    "        f.append(f0)\n",
    "        g.append(g0)\n",
    "        x.append(time)\n",
    "        f0 = f_next\n",
    "        g0 = g_next\n",
    "        time= time+dt\n",
    "    return x, f, g\n",
    "\n",
    "\n",
    "def generator(dt):\n",
    "    matplotlib.use('agg')\n",
    "    # Set up data\n",
    "    c1 = 1\n",
    "    c2 = 0\n",
    "    x = np.linspace(0, 2, 100)\n",
    "    f = 0.5*(np.e**-(2*x))*(1+ np.e**(2*x))*c1 + 0.5*(np.e**-(2*x))*(-1+ np.e**(2*x))*c2\n",
    "    g = 0.5*(np.e**-(2*x))*(-1+ np.e**(2*x))*c1 + 0.5*(np.e**-(2*x))*(1+ np.e**(2*x))*c2\n",
    "    \n",
    "    newx,newf,newg = getsol(2,1,0,dt)\n",
    "    \n",
    "    fig,ax = plt.subplots(figsize=(7,7))\n",
    "    plt.plot(x,f,c='k',label=r'$ \\frac{1}{2}  e^{-2 t} (1 + e^{2 t})$',zorder=0)\n",
    "    plt.plot(x,g,c='b',label=r'$ \\frac{1}{2}  e^{-2 t} (-1 + e^{2 t})$',zorder=0)\n",
    "    plt.scatter(newx,newf,c='r',label='Numerical f(t)',zorder=1)\n",
    "    plt.scatter(newx,newg,c='g',label='Numerical g(t)',zorder=1)\n",
    "    plt.ylabel(\"f(t)\")\n",
    "    plt.xlabel('t')\n",
    "    plt.title('$\\Delta t =$'+str(np.round(dt,3)))\n",
    "    plt.legend(loc='lower right')\n",
    "    plt.close() #stops figure from being shown\n",
    "    return fig"
   ]
  },
  {
   "cell_type": "code",
   "execution_count": 6,
   "id": "04036c66-6584-4f5d-8ad7-41bf29b71bcd",
   "metadata": {},
   "outputs": [
    {
     "data": {
      "text/plain": [
       "<Figure size 700x700 with 1 Axes>"
      ]
     },
     "execution_count": 6,
     "metadata": {},
     "output_type": "execute_result"
    }
   ],
   "source": [
    "fig=generator(0.01)\n",
    "fig"
   ]
  },
  {
   "cell_type": "code",
   "execution_count": 7,
   "id": "43df91c7-ddc7-4165-b1ac-3fbcb06e6eb0",
   "metadata": {},
   "outputs": [
    {
     "name": "stdout",
     "output_type": "stream",
     "text": [
      "saving figures\n"
     ]
    },
    {
     "name": "stderr",
     "output_type": "stream",
     "text": [
      "100%|█████████████████████████████████████████| 150/150 [00:30<00:00,  4.87it/s]\n",
      "ffmpeg version 4.4.2-0ubuntu0.22.04.1 Copyright (c) 2000-2021 the FFmpeg developers\n",
      "  built with gcc 11 (Ubuntu 11.2.0-19ubuntu1)\n",
      "  configuration: --prefix=/usr --extra-version=0ubuntu0.22.04.1 --toolchain=hardened --libdir=/usr/lib/x86_64-linux-gnu --incdir=/usr/include/x86_64-linux-gnu --arch=amd64 --enable-gpl --disable-stripping --enable-gnutls --enable-ladspa --enable-libaom --enable-libass --enable-libbluray --enable-libbs2b --enable-libcaca --enable-libcdio --enable-libcodec2 --enable-libdav1d --enable-libflite --enable-libfontconfig --enable-libfreetype --enable-libfribidi --enable-libgme --enable-libgsm --enable-libjack --enable-libmp3lame --enable-libmysofa --enable-libopenjpeg --enable-libopenmpt --enable-libopus --enable-libpulse --enable-librabbitmq --enable-librubberband --enable-libshine --enable-libsnappy --enable-libsoxr --enable-libspeex --enable-libsrt --enable-libssh --enable-libtheora --enable-libtwolame --enable-libvidstab --enable-libvorbis --enable-libvpx --enable-libwebp --enable-libx265 --enable-libxml2 --enable-libxvid --enable-libzimg --enable-libzmq --enable-libzvbi --enable-lv2 --enable-omx --enable-openal --enable-opencl --enable-opengl --enable-sdl2 --enable-pocketsphinx --enable-librsvg --enable-libmfx --enable-libdc1394 --enable-libdrm --enable-libiec61883 --enable-chromaprint --enable-frei0r --enable-libx264 --enable-shared\n",
      "  libavutil      56. 70.100 / 56. 70.100\n",
      "  libavcodec     58.134.100 / 58.134.100\n",
      "  libavformat    58. 76.100 / 58. 76.100\n",
      "  libavdevice    58. 13.100 / 58. 13.100\n",
      "  libavfilter     7.110.100 /  7.110.100\n",
      "  libswscale      5.  9.100 /  5.  9.100\n",
      "  libswresample   3.  9.100 /  3.  9.100\n",
      "  libpostproc    55.  9.100 / 55.  9.100\n",
      "Input #0, image2, from '%d.png':\n",
      "  Duration: 00:00:06.00, start: 0.000000, bitrate: N/A\n",
      "  Stream #0:0: Video: png, rgba(pc), 1840x1928 [SAR 11811:11811 DAR 230:241], 25 fps, 25 tbr, 25 tbn, 25 tbc\n",
      "Stream mapping:\n",
      "  Stream #0:0 -> #0:0 (png (native) -> png (native))\n",
      "Press [q] to stop, [?] for help\n"
     ]
    },
    {
     "name": "stdout",
     "output_type": "stream",
     "text": [
      "Framerate is None fps\n",
      "Total Runtime is None s\n"
     ]
    },
    {
     "name": "stderr",
     "output_type": "stream",
     "text": [
      "[Parsed_palettegen_0 @ 0x564af4c86500] 255(+1) colors generated out of 4377 colors; ratio=0.058259\n",
      "[Parsed_palettegen_0 @ 0x564af4c86500] Dupped color: FF038104\n",
      "Output #0, image2, to '../temp_palette_example_2.png':\n",
      "  Metadata:\n",
      "    encoder         : Lavf58.76.100\n",
      "  Stream #0:0: Video: png, rgba(pc, gbr/unknown/unknown, progressive), 16x16 [SAR 1:1 DAR 1:1], q=2-31, 200 kb/s, 25 fps, 25 tbn\n",
      "    Metadata:\n",
      "      encoder         : Lavc58.134.100 png\n",
      "frame=    1 fps=0.7 q=-0.0 Lsize=N/A time=00:00:00.04 bitrate=N/A speed=0.0286x    \n",
      "video:1kB audio:0kB subtitle:0kB other streams:0kB global headers:0kB muxing overhead: unknown\n",
      "ffmpeg version 4.4.2-0ubuntu0.22.04.1 Copyright (c) 2000-2021 the FFmpeg developers\n",
      "  built with gcc 11 (Ubuntu 11.2.0-19ubuntu1)\n",
      "  configuration: --prefix=/usr --extra-version=0ubuntu0.22.04.1 --toolchain=hardened --libdir=/usr/lib/x86_64-linux-gnu --incdir=/usr/include/x86_64-linux-gnu --arch=amd64 --enable-gpl --disable-stripping --enable-gnutls --enable-ladspa --enable-libaom --enable-libass --enable-libbluray --enable-libbs2b --enable-libcaca --enable-libcdio --enable-libcodec2 --enable-libdav1d --enable-libflite --enable-libfontconfig --enable-libfreetype --enable-libfribidi --enable-libgme --enable-libgsm --enable-libjack --enable-libmp3lame --enable-libmysofa --enable-libopenjpeg --enable-libopenmpt --enable-libopus --enable-libpulse --enable-librabbitmq --enable-librubberband --enable-libshine --enable-libsnappy --enable-libsoxr --enable-libspeex --enable-libsrt --enable-libssh --enable-libtheora --enable-libtwolame --enable-libvidstab --enable-libvorbis --enable-libvpx --enable-libwebp --enable-libx265 --enable-libxml2 --enable-libxvid --enable-libzimg --enable-libzmq --enable-libzvbi --enable-lv2 --enable-omx --enable-openal --enable-opencl --enable-opengl --enable-sdl2 --enable-pocketsphinx --enable-librsvg --enable-libmfx --enable-libdc1394 --enable-libdrm --enable-libiec61883 --enable-chromaprint --enable-frei0r --enable-libx264 --enable-shared\n",
      "  libavutil      56. 70.100 / 56. 70.100\n",
      "  libavcodec     58.134.100 / 58.134.100\n",
      "  libavformat    58. 76.100 / 58. 76.100\n",
      "  libavdevice    58. 13.100 / 58. 13.100\n",
      "  libavfilter     7.110.100 /  7.110.100\n",
      "  libswscale      5.  9.100 /  5.  9.100\n",
      "  libswresample   3.  9.100 /  3.  9.100\n",
      "  libpostproc    55.  9.100 / 55.  9.100\n",
      "Input #0, image2, from '%d.png':\n",
      "  Duration: 00:00:06.00, start: 0.000000, bitrate: N/A\n",
      "  Stream #0:0: Video: png, rgba(pc), 1840x1928 [SAR 11811:11811 DAR 230:241], 25 fps, 25 tbr, 25 tbn, 25 tbc\n",
      "Input #1, png_pipe, from '../temp_palette_example_2.png':\n",
      "  Duration: N/A, bitrate: N/A\n",
      "  Stream #1:0: Video: png, rgba(pc), 16x16 [SAR 1:1 DAR 1:1], 25 fps, 25 tbr, 25 tbn, 25 tbc\n",
      "Stream mapping:\n",
      "  Stream #0:0 (png) -> paletteuse:default\n",
      "  Stream #1:0 (png) -> paletteuse:palette\n",
      "  paletteuse -> Stream #0:0 (gif)\n",
      "Press [q] to stop, [?] for help\n",
      "[image2 @ 0x557f9d2d8840] Thread message queue blocking; consider raising the thread_queue_size option (current value: 8)\n",
      "Output #0, gif, to '../example_2.gif':\n",
      "  Metadata:\n",
      "    encoder         : Lavf58.76.100\n",
      "  Stream #0:0: Video: gif, pal8(pc, gbr/unknown/unknown, progressive), 1840x1928 [SAR 1:1 DAR 230:241], q=2-31, 200 kb/s, 25 fps, 100 tbn (default)\n",
      "    Metadata:\n",
      "      encoder         : Lavc58.134.100 gif\n",
      "frame=  150 fps= 16 q=-0.0 Lsize=    1860kB time=00:00:05.97 bitrate=2552.1kbits/s speed=0.635x    \n",
      "video:1860kB audio:0kB subtitle:0kB other streams:0kB global headers:0kB muxing overhead: 0.001050%\n"
     ]
    }
   ],
   "source": [
    "parameter_grid = np.linspace(0.25,0.001,150)\n",
    "savefigures(generator,parameter_grid,outdir='./example_2/')\n",
    "render('./example_2/','example_2','gif',cleanup_type='rm')"
   ]
  },
  {
   "cell_type": "markdown",
   "id": "4f682467-e247-4b67-9432-aca5b9c971bd",
   "metadata": {},
   "source": [
    "# Coupled 1st order equation  $f''(x) = -f(x)$"
   ]
  },
  {
   "cell_type": "code",
   "execution_count": 8,
   "id": "b56ce6ff-b999-46ae-b4d8-7c00d3df1ca4",
   "metadata": {},
   "outputs": [],
   "source": [
    "#define findiff approx:\n",
    "def getsol(tmax,f0,f1,dt):\n",
    "    f=[f0,f1]\n",
    "    x=[0]\n",
    "    time=0\n",
    "    while time < tmax:\n",
    "        f_next = -(1+dt**2)*f[-2] + 2*f[-1]\n",
    "        f.append(f_next)\n",
    "        x.append(time)\n",
    "        time= time+dt\n",
    "    return x, f[:-1]\n",
    "\n",
    "\n",
    "def generator(dt):\n",
    "    matplotlib.use('agg')\n",
    "    # Set up data\n",
    "    x = np.linspace(0, 12, 100)\n",
    "    f = np.sin(x) \n",
    "    newx,newf = getsol(12,0,dt,dt)\n",
    "    \n",
    "    fig,ax = plt.subplots(figsize=(7,7))\n",
    "    plt.plot(x,f,c='k',label=r'$ \\sin(t)$',zorder=0)\n",
    "    plt.scatter(newx,newf,c='r',label='Numerical f(t)',zorder=1)\n",
    "    plt.ylabel(\"f(t)\")\n",
    "    plt.xlabel('t')\n",
    "    plt.title('$\\Delta t =$'+str(np.round(dt,3)))\n",
    "    plt.legend(loc='lower right')\n",
    "    plt.ylim(-2,2)\n",
    "    plt.close() #stops figure from being shown\n",
    "    return fig"
   ]
  },
  {
   "cell_type": "code",
   "execution_count": 9,
   "id": "e1973fdd-fdb6-4843-9bbe-c87649792960",
   "metadata": {},
   "outputs": [
    {
     "data": {
      "text/plain": [
       "<Figure size 700x700 with 1 Axes>"
      ]
     },
     "execution_count": 9,
     "metadata": {},
     "output_type": "execute_result"
    }
   ],
   "source": [
    "fig=generator(0.1)\n",
    "fig"
   ]
  },
  {
   "cell_type": "code",
   "execution_count": 10,
   "id": "3c42c4e8-0d6e-499d-8cbe-522fa24c8844",
   "metadata": {},
   "outputs": [
    {
     "name": "stdout",
     "output_type": "stream",
     "text": [
      "saving figures\n"
     ]
    },
    {
     "name": "stderr",
     "output_type": "stream",
     "text": [
      "100%|█████████████████████████████████████████| 150/150 [00:27<00:00,  5.52it/s]\n",
      "ffmpeg version 4.4.2-0ubuntu0.22.04.1 Copyright (c) 2000-2021 the FFmpeg developers\n",
      "  built with gcc 11 (Ubuntu 11.2.0-19ubuntu1)\n",
      "  configuration: --prefix=/usr --extra-version=0ubuntu0.22.04.1 --toolchain=hardened --libdir=/usr/lib/x86_64-linux-gnu --incdir=/usr/include/x86_64-linux-gnu --arch=amd64 --enable-gpl --disable-stripping --enable-gnutls --enable-ladspa --enable-libaom --enable-libass --enable-libbluray --enable-libbs2b --enable-libcaca --enable-libcdio --enable-libcodec2 --enable-libdav1d --enable-libflite --enable-libfontconfig --enable-libfreetype --enable-libfribidi --enable-libgme --enable-libgsm --enable-libjack --enable-libmp3lame --enable-libmysofa --enable-libopenjpeg --enable-libopenmpt --enable-libopus --enable-libpulse --enable-librabbitmq --enable-librubberband --enable-libshine --enable-libsnappy --enable-libsoxr --enable-libspeex --enable-libsrt --enable-libssh --enable-libtheora --enable-libtwolame --enable-libvidstab --enable-libvorbis --enable-libvpx --enable-libwebp --enable-libx265 --enable-libxml2 --enable-libxvid --enable-libzimg --enable-libzmq --enable-libzvbi --enable-lv2 --enable-omx --enable-openal --enable-opencl --enable-opengl --enable-sdl2 --enable-pocketsphinx --enable-librsvg --enable-libmfx --enable-libdc1394 --enable-libdrm --enable-libiec61883 --enable-chromaprint --enable-frei0r --enable-libx264 --enable-shared\n",
      "  libavutil      56. 70.100 / 56. 70.100\n",
      "  libavcodec     58.134.100 / 58.134.100\n",
      "  libavformat    58. 76.100 / 58. 76.100\n",
      "  libavdevice    58. 13.100 / 58. 13.100\n",
      "  libavfilter     7.110.100 /  7.110.100\n",
      "  libswscale      5.  9.100 /  5.  9.100\n",
      "  libswresample   3.  9.100 /  3.  9.100\n",
      "  libpostproc    55.  9.100 / 55.  9.100\n",
      "Input #0, image2, from '%d.png':\n",
      "  Duration: 00:00:06.00, start: 0.000000, bitrate: N/A\n",
      "  Stream #0:0: Video: png, rgba(pc), 1893x1928 [SAR 11811:11811 DAR 1893:1928], 25 fps, 25 tbr, 25 tbn, 25 tbc\n",
      "Stream mapping:\n",
      "  Stream #0:0 -> #0:0 (png (native) -> png (native))\n",
      "Press [q] to stop, [?] for help\n"
     ]
    },
    {
     "name": "stdout",
     "output_type": "stream",
     "text": [
      "Framerate is None fps\n",
      "Total Runtime is None s\n"
     ]
    },
    {
     "name": "stderr",
     "output_type": "stream",
     "text": [
      "[Parsed_palettegen_0 @ 0x560b7ab9b500] 255(+1) colors generated out of 4681 colors; ratio=0.054476\n",
      "Output #0, image2, to '../temp_palette_example_3.png':\n",
      "  Metadata:\n",
      "    encoder         : Lavf58.76.100\n",
      "  Stream #0:0: Video: png, rgba(pc, gbr/unknown/unknown, progressive), 16x16 [SAR 1:1 DAR 1:1], q=2-31, 200 kb/s, 25 fps, 25 tbn\n",
      "    Metadata:\n",
      "      encoder         : Lavc58.134.100 png\n",
      "frame=    1 fps=0.6 q=-0.0 Lsize=N/A time=00:00:00.04 bitrate=N/A speed=0.0258x    \n",
      "video:1kB audio:0kB subtitle:0kB other streams:0kB global headers:0kB muxing overhead: unknown\n",
      "ffmpeg version 4.4.2-0ubuntu0.22.04.1 Copyright (c) 2000-2021 the FFmpeg developers\n",
      "  built with gcc 11 (Ubuntu 11.2.0-19ubuntu1)\n",
      "  configuration: --prefix=/usr --extra-version=0ubuntu0.22.04.1 --toolchain=hardened --libdir=/usr/lib/x86_64-linux-gnu --incdir=/usr/include/x86_64-linux-gnu --arch=amd64 --enable-gpl --disable-stripping --enable-gnutls --enable-ladspa --enable-libaom --enable-libass --enable-libbluray --enable-libbs2b --enable-libcaca --enable-libcdio --enable-libcodec2 --enable-libdav1d --enable-libflite --enable-libfontconfig --enable-libfreetype --enable-libfribidi --enable-libgme --enable-libgsm --enable-libjack --enable-libmp3lame --enable-libmysofa --enable-libopenjpeg --enable-libopenmpt --enable-libopus --enable-libpulse --enable-librabbitmq --enable-librubberband --enable-libshine --enable-libsnappy --enable-libsoxr --enable-libspeex --enable-libsrt --enable-libssh --enable-libtheora --enable-libtwolame --enable-libvidstab --enable-libvorbis --enable-libvpx --enable-libwebp --enable-libx265 --enable-libxml2 --enable-libxvid --enable-libzimg --enable-libzmq --enable-libzvbi --enable-lv2 --enable-omx --enable-openal --enable-opencl --enable-opengl --enable-sdl2 --enable-pocketsphinx --enable-librsvg --enable-libmfx --enable-libdc1394 --enable-libdrm --enable-libiec61883 --enable-chromaprint --enable-frei0r --enable-libx264 --enable-shared\n",
      "  libavutil      56. 70.100 / 56. 70.100\n",
      "  libavcodec     58.134.100 / 58.134.100\n",
      "  libavformat    58. 76.100 / 58. 76.100\n",
      "  libavdevice    58. 13.100 / 58. 13.100\n",
      "  libavfilter     7.110.100 /  7.110.100\n",
      "  libswscale      5.  9.100 /  5.  9.100\n",
      "  libswresample   3.  9.100 /  3.  9.100\n",
      "  libpostproc    55.  9.100 / 55.  9.100\n",
      "Input #0, image2, from '%d.png':\n",
      "  Duration: 00:00:06.00, start: 0.000000, bitrate: N/A\n",
      "  Stream #0:0: Video: png, rgba(pc), 1893x1928 [SAR 11811:11811 DAR 1893:1928], 25 fps, 25 tbr, 25 tbn, 25 tbc\n",
      "Input #1, png_pipe, from '../temp_palette_example_3.png':\n",
      "  Duration: N/A, bitrate: N/A\n",
      "  Stream #1:0: Video: png, rgba(pc), 16x16 [SAR 1:1 DAR 1:1], 25 fps, 25 tbr, 25 tbn, 25 tbc\n",
      "Stream mapping:\n",
      "  Stream #0:0 (png) -> paletteuse:default\n",
      "  Stream #1:0 (png) -> paletteuse:palette\n",
      "  paletteuse -> Stream #0:0 (gif)\n",
      "Press [q] to stop, [?] for help\n",
      "[image2 @ 0x55a3227c6840] Thread message queue blocking; consider raising the thread_queue_size option (current value: 8)\n",
      "Output #0, gif, to '../example_3.gif':\n",
      "  Metadata:\n",
      "    encoder         : Lavf58.76.100\n",
      "  Stream #0:0: Video: gif, pal8(pc, gbr/unknown/unknown, progressive), 1893x1928 [SAR 1:1 DAR 1893:1928], q=2-31, 200 kb/s, 25 fps, 100 tbn (default)\n",
      "    Metadata:\n",
      "      encoder         : Lavc58.134.100 gif\n",
      "frame=  150 fps= 15 q=-0.0 Lsize=    2847kB time=00:00:05.97 bitrate=3906.5kbits/s speed=0.601x    \n",
      "video:2847kB audio:0kB subtitle:0kB other streams:0kB global headers:0kB muxing overhead: 0.000686%\n"
     ]
    }
   ],
   "source": [
    "parameter_grid = np.linspace(0.25,0.001,150)\n",
    "savefigures(generator,parameter_grid,outdir='./example_3/')\n",
    "render('./example_3/','example_3','gif',cleanup_type='rm')"
   ]
  },
  {
   "cell_type": "markdown",
   "id": "875e6cb5-89fd-47aa-8ffd-aeeefdf0e58e",
   "metadata": {},
   "source": [
    "## Stiff example "
   ]
  },
  {
   "cell_type": "code",
   "execution_count": 11,
   "id": "3cb88ce5-67d7-4532-aef3-6fc47a2244d9",
   "metadata": {},
   "outputs": [],
   "source": [
    "#define findiff approx:\n",
    "def getsol(tmax,f0,dt):\n",
    "    y=[f0]\n",
    "    x=[0]\n",
    "    time=0\n",
    "    while time < tmax:\n",
    "        f_next = (1-15*dt)*f0\n",
    "        y.append(f0)\n",
    "        x.append(time)\n",
    "        f0 = f_next\n",
    "        time= time+dt\n",
    "    return x, y\n",
    "\n",
    "\n",
    "def generator(dt):\n",
    "    matplotlib.use('agg')\n",
    "    # Set up data\n",
    "    x = np.linspace(0, 2, 100)\n",
    "    y = np.e**(-15*x)\n",
    "    newx,newy = getsol(2,1,dt)\n",
    "    \n",
    "    fig,ax = plt.subplots(figsize=(7,7))\n",
    "    plt.plot(x,y,c='k',label='$e^{t}$',zorder=0)\n",
    "    plt.scatter(newx,newy,c='r',label='numerical f(t)',zorder=1)\n",
    "    plt.ylabel(\"f(t)\")\n",
    "    plt.xlabel('t')\n",
    "    plt.title('$\\Delta t =$'+str(np.round(dt,3)))\n",
    "    plt.legend(loc='lower right')\n",
    "    plt.ylim(-0.5,1.25)\n",
    "    plt.close() #stops figure from being shown\n",
    "    return fig"
   ]
  },
  {
   "cell_type": "code",
   "execution_count": 12,
   "id": "f7f555b7-b703-4708-92e6-d9aa957e4c3e",
   "metadata": {},
   "outputs": [
    {
     "data": {
      "text/plain": [
       "<Figure size 700x700 with 1 Axes>"
      ]
     },
     "execution_count": 12,
     "metadata": {},
     "output_type": "execute_result"
    }
   ],
   "source": [
    "fig=generator(0.01)\n",
    "fig"
   ]
  },
  {
   "cell_type": "code",
   "execution_count": 13,
   "id": "619a6864-821d-4c30-b8bc-479a6ef5a075",
   "metadata": {},
   "outputs": [
    {
     "name": "stdout",
     "output_type": "stream",
     "text": [
      "saving figures\n"
     ]
    },
    {
     "name": "stderr",
     "output_type": "stream",
     "text": [
      "100%|█████████████████████████████████████████| 150/150 [00:26<00:00,  5.68it/s]\n",
      "ffmpeg version 4.4.2-0ubuntu0.22.04.1 Copyright (c) 2000-2021 the FFmpeg developers\n",
      "  built with gcc 11 (Ubuntu 11.2.0-19ubuntu1)\n",
      "  configuration: --prefix=/usr --extra-version=0ubuntu0.22.04.1 --toolchain=hardened --libdir=/usr/lib/x86_64-linux-gnu --incdir=/usr/include/x86_64-linux-gnu --arch=amd64 --enable-gpl --disable-stripping --enable-gnutls --enable-ladspa --enable-libaom --enable-libass --enable-libbluray --enable-libbs2b --enable-libcaca --enable-libcdio --enable-libcodec2 --enable-libdav1d --enable-libflite --enable-libfontconfig --enable-libfreetype --enable-libfribidi --enable-libgme --enable-libgsm --enable-libjack --enable-libmp3lame --enable-libmysofa --enable-libopenjpeg --enable-libopenmpt --enable-libopus --enable-libpulse --enable-librabbitmq --enable-librubberband --enable-libshine --enable-libsnappy --enable-libsoxr --enable-libspeex --enable-libsrt --enable-libssh --enable-libtheora --enable-libtwolame --enable-libvidstab --enable-libvorbis --enable-libvpx --enable-libwebp --enable-libx265 --enable-libxml2 --enable-libxvid --enable-libzimg --enable-libzmq --enable-libzvbi --enable-lv2 --enable-omx --enable-openal --enable-opencl --enable-opengl --enable-sdl2 --enable-pocketsphinx --enable-librsvg --enable-libmfx --enable-libdc1394 --enable-libdrm --enable-libiec61883 --enable-chromaprint --enable-frei0r --enable-libx264 --enable-shared\n",
      "  libavutil      56. 70.100 / 56. 70.100\n",
      "  libavcodec     58.134.100 / 58.134.100\n",
      "  libavformat    58. 76.100 / 58. 76.100\n",
      "  libavdevice    58. 13.100 / 58. 13.100\n",
      "  libavfilter     7.110.100 /  7.110.100\n",
      "  libswscale      5.  9.100 /  5.  9.100\n",
      "  libswresample   3.  9.100 /  3.  9.100\n",
      "  libpostproc    55.  9.100 / 55.  9.100\n",
      "Input #0, image2, from '%d.png':\n",
      "  Duration: 00:00:06.00, start: 0.000000, bitrate: N/A\n",
      "  Stream #0:0: Video: png, rgba(pc), 1893x1928 [SAR 11811:11811 DAR 1893:1928], 25 fps, 25 tbr, 25 tbn, 25 tbc\n",
      "Stream mapping:\n",
      "  Stream #0:0 -> #0:0 (png (native) -> png (native))\n",
      "Press [q] to stop, [?] for help\n"
     ]
    },
    {
     "name": "stdout",
     "output_type": "stream",
     "text": [
      "Framerate is None fps\n",
      "Total Runtime is None s\n"
     ]
    },
    {
     "name": "stderr",
     "output_type": "stream",
     "text": [
      "[Parsed_palettegen_0 @ 0x55fc1f874c80] 255(+1) colors generated out of 1423 colors; ratio=0.179199\n",
      "[Parsed_palettegen_0 @ 0x55fc1f874c80] Dupped color: FF0A0A0A\n",
      "[Parsed_palettegen_0 @ 0x55fc1f874c80] Dupped color: FFBFBFBF\n",
      "Output #0, image2, to '../temp_palette_example_4.png':\n",
      "  Metadata:\n",
      "    encoder         : Lavf58.76.100\n",
      "  Stream #0:0: Video: png, rgba(pc, gbr/unknown/unknown, progressive), 16x16 [SAR 1:1 DAR 1:1], q=2-31, 200 kb/s, 25 fps, 25 tbn\n",
      "    Metadata:\n",
      "      encoder         : Lavc58.134.100 png\n",
      "frame=    1 fps=0.7 q=-0.0 Lsize=N/A time=00:00:00.04 bitrate=N/A speed=0.027x    \n",
      "video:1kB audio:0kB subtitle:0kB other streams:0kB global headers:0kB muxing overhead: unknown\n",
      "ffmpeg version 4.4.2-0ubuntu0.22.04.1 Copyright (c) 2000-2021 the FFmpeg developers\n",
      "  built with gcc 11 (Ubuntu 11.2.0-19ubuntu1)\n",
      "  configuration: --prefix=/usr --extra-version=0ubuntu0.22.04.1 --toolchain=hardened --libdir=/usr/lib/x86_64-linux-gnu --incdir=/usr/include/x86_64-linux-gnu --arch=amd64 --enable-gpl --disable-stripping --enable-gnutls --enable-ladspa --enable-libaom --enable-libass --enable-libbluray --enable-libbs2b --enable-libcaca --enable-libcdio --enable-libcodec2 --enable-libdav1d --enable-libflite --enable-libfontconfig --enable-libfreetype --enable-libfribidi --enable-libgme --enable-libgsm --enable-libjack --enable-libmp3lame --enable-libmysofa --enable-libopenjpeg --enable-libopenmpt --enable-libopus --enable-libpulse --enable-librabbitmq --enable-librubberband --enable-libshine --enable-libsnappy --enable-libsoxr --enable-libspeex --enable-libsrt --enable-libssh --enable-libtheora --enable-libtwolame --enable-libvidstab --enable-libvorbis --enable-libvpx --enable-libwebp --enable-libx265 --enable-libxml2 --enable-libxvid --enable-libzimg --enable-libzmq --enable-libzvbi --enable-lv2 --enable-omx --enable-openal --enable-opencl --enable-opengl --enable-sdl2 --enable-pocketsphinx --enable-librsvg --enable-libmfx --enable-libdc1394 --enable-libdrm --enable-libiec61883 --enable-chromaprint --enable-frei0r --enable-libx264 --enable-shared\n",
      "  libavutil      56. 70.100 / 56. 70.100\n",
      "  libavcodec     58.134.100 / 58.134.100\n",
      "  libavformat    58. 76.100 / 58. 76.100\n",
      "  libavdevice    58. 13.100 / 58. 13.100\n",
      "  libavfilter     7.110.100 /  7.110.100\n",
      "  libswscale      5.  9.100 /  5.  9.100\n",
      "  libswresample   3.  9.100 /  3.  9.100\n",
      "  libpostproc    55.  9.100 / 55.  9.100\n",
      "Input #0, image2, from '%d.png':\n",
      "  Duration: 00:00:06.00, start: 0.000000, bitrate: N/A\n",
      "  Stream #0:0: Video: png, rgba(pc), 1893x1928 [SAR 11811:11811 DAR 1893:1928], 25 fps, 25 tbr, 25 tbn, 25 tbc\n",
      "Input #1, png_pipe, from '../temp_palette_example_4.png':\n",
      "  Duration: N/A, bitrate: N/A\n",
      "  Stream #1:0: Video: png, rgba(pc), 16x16 [SAR 1:1 DAR 1:1], 25 fps, 25 tbr, 25 tbn, 25 tbc\n",
      "Stream mapping:\n",
      "  Stream #0:0 (png) -> paletteuse:default\n",
      "  Stream #1:0 (png) -> paletteuse:palette\n",
      "  paletteuse -> Stream #0:0 (gif)\n",
      "Press [q] to stop, [?] for help\n",
      "[image2 @ 0x555950d56840] Thread message queue blocking; consider raising the thread_queue_size option (current value: 8)\n",
      "Output #0, gif, to '../example_4.gif':\n",
      "  Metadata:\n",
      "    encoder         : Lavf58.76.100\n",
      "  Stream #0:0: Video: gif, pal8(pc, gbr/unknown/unknown, progressive), 1893x1928 [SAR 1:1 DAR 1893:1928], q=2-31, 200 kb/s, 25 fps, 100 tbn (default)\n",
      "    Metadata:\n",
      "      encoder         : Lavc58.134.100 gif\n",
      "frame=  150 fps= 17 q=-0.0 Lsize=    1076kB time=00:00:05.97 bitrate=1476.2kbits/s speed=0.666x    \n",
      "video:1076kB audio:0kB subtitle:0kB other streams:0kB global headers:0kB muxing overhead: 0.001816%\n"
     ]
    }
   ],
   "source": [
    "parameter_grid = np.linspace(0.25,0.001,150)\n",
    "savefigures(generator,parameter_grid,outdir='./example_4/')\n",
    "render('./example_4/','example_4','gif',cleanup_type='rm')"
   ]
  },
  {
   "cell_type": "code",
   "execution_count": null,
   "id": "eb5ccd1f-4de9-4598-a613-0e304ee73aa3",
   "metadata": {},
   "outputs": [],
   "source": []
  },
  {
   "cell_type": "code",
   "execution_count": null,
   "id": "dfa8005d-3b8a-4224-a7b2-a3c090ff1fd8",
   "metadata": {},
   "outputs": [],
   "source": []
  },
  {
   "cell_type": "code",
   "execution_count": null,
   "id": "3c6d4061-69b5-4443-ad7b-39df6e2d9d56",
   "metadata": {},
   "outputs": [],
   "source": []
  },
  {
   "cell_type": "code",
   "execution_count": null,
   "id": "52d8019f-c0c3-47de-a3dc-ca0a86718b78",
   "metadata": {},
   "outputs": [],
   "source": []
  },
  {
   "cell_type": "code",
   "execution_count": null,
   "id": "57a88dfb-ffaf-40cf-936f-b9c4b8b9a8e6",
   "metadata": {},
   "outputs": [],
   "source": []
  },
  {
   "cell_type": "code",
   "execution_count": null,
   "id": "d1e8ccfb-de6b-44f7-922c-ec5fde9acb29",
   "metadata": {},
   "outputs": [],
   "source": []
  },
  {
   "cell_type": "code",
   "execution_count": null,
   "id": "9cf828b9-4c51-4ca0-b202-c0777b64b814",
   "metadata": {},
   "outputs": [],
   "source": []
  }
 ],
 "metadata": {
  "kernelspec": {
   "display_name": "Python 3 (ipykernel)",
   "language": "python",
   "name": "python3"
  },
  "language_info": {
   "codemirror_mode": {
    "name": "ipython",
    "version": 3
   },
   "file_extension": ".py",
   "mimetype": "text/x-python",
   "name": "python",
   "nbconvert_exporter": "python",
   "pygments_lexer": "ipython3",
   "version": "3.10.6"
  }
 },
 "nbformat": 4,
 "nbformat_minor": 5
}
